<?xml version="1.0" encoding="UTF-8"?>
<!DOCTYPE svg PUBLIC "-//W3C//DTD SVG 1.1//EN" "http://www.w3.org/Graphics/SVG/1.1/DTD/svg11.dtd">
<svg xmlns="http://www.w3.org/2000/svg" version="1.1" width="225px" height="225px" style="shape-rendering:geometricPrecision; text-rendering:geometricPrecision; image-rendering:optimizeQuality; fill-rule:evenodd; clip-rule:evenodd" xmlns:xlink="http://www.w3.org/1999/xlink">
<g><path style="opacity:1" fill="#fefefe" d="M -0.5,-0.5 C 74.5,-0.5 149.5,-0.5 224.5,-0.5C 224.5,74.5 224.5,149.5 224.5,224.5C 149.5,224.5 74.5,224.5 -0.5,224.5C -0.5,149.5 -0.5,74.5 -0.5,-0.5 Z"/></g>
<g><path style="opacity:1" fill="#254898" d="M 42.5,27.5 C 67.1689,27.3334 91.8356,27.5 116.5,28C 125.333,30.1667 130.833,35.6667 133,44.5C 133.5,60.1631 133.667,75.8298 133.5,91.5C 149.837,91.3334 166.17,91.5001 182.5,92C 188.583,94.4148 193.083,98.5815 196,104.5C 196.667,130.5 196.667,156.5 196,182.5C 193.296,189.873 188.13,194.373 180.5,196C 166.167,196.667 151.833,196.667 137.5,196C 128.228,193.728 122.728,187.895 121,178.5C 120.5,153.502 120.333,128.502 120.5,103.5C 94.4979,103.667 68.4979,103.5 42.5,103C 34.3592,99.8631 29.5258,94.0297 28,85.5C 27.3333,71.5 27.3333,57.5 28,43.5C 30.5996,36.0704 35.4329,30.7371 42.5,27.5 Z"/></g>
<g><path style="opacity:1" fill="#fdfdfe" d="M 120.5,46.5 C 120.5,61.1667 120.5,75.8333 120.5,90.5C 95.8333,90.5 71.1667,90.5 46.5,90.5C 43.9807,90.1523 42.1474,88.8189 41,86.5C 40.3333,72.5 40.3333,58.5 41,44.5C 42.2273,42.2739 44.0607,40.7739 46.5,40C 69.1667,39.3333 91.8333,39.3333 114.5,40C 118.089,40.7542 120.089,42.9209 120.5,46.5 Z"/></g>
<g><path style="opacity:1" fill="#97a3c9" d="M 120.5,46.5 C 121.496,61.324 121.829,76.324 121.5,91.5C 96.3278,91.831 71.3278,91.4977 46.5,90.5C 71.1667,90.5 95.8333,90.5 120.5,90.5C 120.5,75.8333 120.5,61.1667 120.5,46.5 Z"/></g>
<g><path style="opacity:1" fill="#fdfdfe" d="M 133.5,103.5 C 148.837,103.333 164.17,103.5 179.5,104C 180.931,104.465 182.097,105.299 183,106.5C 184.647,130.746 184.98,155.079 184,179.5C 182.773,181.726 180.939,183.226 178.5,184C 165.5,184.667 152.5,184.667 139.5,184C 137.376,182.878 135.543,181.378 134,179.5C 133.5,154.169 133.333,128.836 133.5,103.5 Z"/></g>
<g><path style="opacity:1" fill="#274999" d="M 45.5,119.5 C 59.1707,119.333 72.8374,119.5 86.5,120C 95.0297,121.526 100.863,126.359 104,134.5C 104.667,149.833 104.667,165.167 104,180.5C 102.176,188.991 97.0089,194.158 88.5,196C 73.1667,196.667 57.8333,196.667 42.5,196C 34.8085,192.977 29.9752,187.477 28,179.5C 27.3333,165.167 27.3333,150.833 28,136.5C 30.4579,127.207 36.2912,121.54 45.5,119.5 Z"/></g>
<g><path style="opacity:1" fill="#fcfcfd" d="M 44.5,132.5 C 58.8372,132.333 73.1705,132.5 87.5,133C 89.3333,134.167 90.8333,135.667 92,137.5C 92.6667,151.167 92.6667,164.833 92,178.5C 91.2155,180.286 90.0488,181.786 88.5,183C 74.5941,184.631 60.5941,184.964 46.5,184C 44.0607,183.226 42.2273,181.726 41,179.5C 40.3333,165.5 40.3333,151.5 41,137.5C 41.9973,135.677 43.1639,134.01 44.5,132.5 Z"/></g>
</svg>
