<svg width="539" height="182" viewBox="0 0 539 182" fill="none" xmlns="http://www.w3.org/2000/svg">
<path d="M48.88 24.72C61.57 24.72 71.88 35.57 71.88 48.96H97.71C97.71 36.036 92.576 23.6413 83.4373 14.5027C74.2987 5.36405 61.904 0.230011 48.98 0.230011C36.056 0.230011 23.6613 5.36405 14.5227 14.5027C5.38404 23.6413 0.25 36.036 0.25 48.96H25.89C25.89 35.57 36.18 24.72 48.88 24.72Z" fill="#FFC13E"/>
<path d="M71.8599 178.67V132.87H25.8599V178.67H5.99994C4.45903 178.67 2.98124 178.058 1.89165 176.968C0.802065 175.879 0.189941 174.401 0.189941 172.86V63.51H25.8899V108.66H71.8899V63.51H97.7199V172.86C97.7199 174.401 97.1078 175.879 96.0182 176.968C94.9286 178.058 93.4509 178.67 91.9099 178.67H71.8599Z" fill="#080D41"/>
<path d="M165.75 168.28C162.18 176.07 154.05 181 144 181C120.29 181 103.88 163 103.88 138.11C103.88 114.11 119.31 95.56 143.19 95.56C157.65 95.56 163.98 103.56 165.61 107.25V97.99H189.48V164.27C189.48 167.5 189.57 170.27 189.69 172.6C189.732 173.388 189.613 174.176 189.341 174.916C189.068 175.657 188.648 176.334 188.105 176.907C187.563 177.479 186.909 177.935 186.184 178.247C185.46 178.559 184.679 178.72 183.89 178.72H166.4C165.961 175.546 165.744 172.345 165.75 169.14V168.28ZM147.23 159.67C157.14 159.67 165.59 151.87 165.59 138.23C165.59 124.23 157.3 116.95 147.23 116.95C136.67 116.95 128.71 124.26 128.71 138.23C128.71 151.55 137 159.67 147.23 159.67V159.67Z" fill="#080D41"/>
<path d="M251.51 131.89L283.67 178.67H253.46L234.46 150.25L226.46 158.86V178.67H207.62C206.079 178.67 204.601 178.058 203.512 176.968C202.422 175.879 201.81 174.401 201.81 172.86V63.51H226.5V125.07L251 97.94H283L251.51 131.89Z" fill="#080D41"/>
<path d="M297.8 63.51C300.666 63.4763 303.477 64.2949 305.876 65.8619C308.276 67.4288 310.156 69.6734 311.277 72.3107C312.398 74.9481 312.711 77.8591 312.175 80.6743C311.638 83.4896 310.278 86.082 308.266 88.1225C306.253 90.163 303.68 91.5595 300.872 92.1347C298.065 92.71 295.15 92.438 292.497 91.3533C289.845 90.2687 287.574 88.4203 285.974 86.0428C284.374 83.6652 283.516 80.8659 283.51 78C283.517 74.1938 285.019 70.5427 287.692 67.8326C290.364 65.1226 293.994 63.5703 297.8 63.51V63.51ZM285.62 178.67V97.94H310.31V172.86C310.31 174.401 309.698 175.879 308.608 176.968C307.519 178.058 306.041 178.67 304.5 178.67H285.62Z" fill="#080D41"/>
<path d="M322.17 172.86V97.94H345.72V107.2C349.78 100.06 360.18 95.51 368.95 95.51C380.48 95.51 388.76 100.22 392.83 108.18C399.16 99.08 406.96 95.51 417.83 95.51C433.1 95.51 447.72 104.44 447.72 126.37V178.67H429.66C428.119 178.67 426.641 178.058 425.552 176.968C424.462 175.879 423.85 174.401 423.85 172.86V131.86C423.85 124.23 419.79 118.22 411.02 118.22C402.25 118.22 397.54 124.88 397.54 132.02V178.64H379C377.459 178.64 375.981 178.028 374.892 176.938C373.802 175.849 373.19 174.371 373.19 172.83V131.83C373.19 124.2 369.13 118.19 360.19 118.19C351.58 118.19 346.87 124.85 346.87 132.19V178.64H328C326.461 178.645 324.982 178.04 323.889 176.956C322.796 175.872 322.178 174.399 322.17 172.86V172.86Z" fill="#080D41"/>
<path d="M538.69 138.23C538.69 163.23 520.01 181.11 495.81 181.11C471.81 181.11 452.92 163.24 452.92 138.23C452.92 113.22 471.77 95.51 495.81 95.51C520 95.51 538.69 113.21 538.69 138.23ZM514 138.23C514 124.58 505.23 118.23 495.81 118.23C486.55 118.23 477.61 124.56 477.61 138.23C477.61 151.71 486.55 158.37 495.81 158.37C505.23 158.37 514 151.87 514 138.23Z" fill="#080D41"/>
</svg>
