<?xml version="1.0" standalone="no"?>
<!DOCTYPE svg PUBLIC "-//W3C//DTD SVG 20010904//EN"
 "http://www.w3.org/TR/2001/REC-SVG-20010904/DTD/svg10.dtd">
<svg version="1.0" xmlns="http://www.w3.org/2000/svg"
 width="225.000000pt" height="225.000000pt" viewBox="0 0 225.000000 225.000000"
 preserveAspectRatio="xMidYMid meet">

<g transform="translate(0.000000,225.000000) scale(0.100000,-0.100000)"
fill="#000000" stroke="none">
<path d="M562 1957 l-22 -23 0 -810 0 -811 23 -21 23 -22 22 23 c22 23 22 27
22 390 l0 367 505 0 505 0 0 -373 c0 -361 1 -375 20 -392 19 -17 21 -17 40 0
20 18 20 31 20 825 0 794 0 807 -20 825 -19 17 -21 17 -40 0 -19 -18 -20 -31
-20 -412 l0 -393 -505 0 -505 0 0 403 0 404 -23 21 -23 22 -22 -23z"/>
<path d="M417 1812 l-37 -38 0 -649 0 -649 40 -41 40 -40 0 728 c0 400 -1 727
-3 727 -2 0 -20 -17 -40 -38z"/>
<path d="M710 1532 l0 -322 420 0 420 0 0 307 0 307 -40 -39 -40 -39 0 -228 0
-228 -337 2 -338 3 -3 241 -2 240 -40 39 -40 39 0 -322z"/>
<path d="M1810 1114 l0 -718 40 39 40 39 0 629 0 629 -40 50 -40 51 0 -719z"/>
<path d="M710 689 l0 -293 40 39 40 39 0 208 0 208 340 0 340 0 0 -208 0 -208
40 -39 40 -39 0 290 0 290 -420 3 -420 3 0 -293z"/>
</g>
</svg>
